<svg width="56" height="56" viewBox="0 0 56 56" fill="none" xmlns="http://www.w3.org/2000/svg">
<path d="M0 20C0 8.95431 8.95431 0 20 0H36C47.0457 0 56 8.95431 56 20V36C56 47.0457 47.0457 56 36 56H20C8.95431 56 0 47.0457 0 36V20Z" fill="#F0F9FF"/>
<g clip-path="url(#clip0_4953_10603)">
<path d="M27.8 26.9C25.53 26.31 24.8 25.7 24.8 24.75C24.8 23.66 25.81 22.9 27.5 22.9C29.28 22.9 29.94 23.75 30 25H32.21C32.14 23.28 31.09 21.7 29 21.19V19H26V21.16C24.06 21.58 22.5 22.84 22.5 24.77C22.5 27.08 24.41 28.23 27.2 28.9C29.7 29.5 30.2 30.38 30.2 31.31C30.2 32 29.71 33.1 27.5 33.1C25.44 33.1 24.63 32.18 24.52 31H22.32C22.44 33.19 24.08 34.42 26 34.83V37H29V34.85C30.95 34.48 32.5 33.35 32.5 31.3C32.5 28.46 30.07 27.49 27.8 26.9Z" fill="#0078D9"/>
</g>
<defs>
<clipPath id="clip0_4953_10603">
<path d="M16 20C16 17.7909 17.7909 16 20 16H36C38.2091 16 40 17.7909 40 20V36C40 38.2091 38.2091 40 36 40H20C17.7909 40 16 38.2091 16 36V20Z" fill="white"/>
</clipPath>
</defs>
</svg>
